PathFileType	4	(X/Y/Z)	/Users/itak/Documents/Research/Walk-IL/dataset/trc/00255_00009.trc
DataRate	CameraRate	NumFrames	NumMarkers	Units	OrigDataRate	OrigDataStartFrame	OrigNumFrames
100.000000	100.000000	4	53	mm	100.000000	409	546
Frame#	Time	RPSI			LPSI			L3			STRN			T10			C7			CLAV			RBAK			LBAK			LSHO			LUPA			LAEL			LAOL			LWTS			LWPS			LFRA			LIFD			LHPS			LHTS			RSHO			RUPA			RAEL			RAOL			RWTS			RWPS			RFRA			RIFD			RHTS			RHPS			RBHD			LFHD			RFHD			LBHD			LHIP			RHIP			RASI			LASI			LKNE			LTHI			LANK			LTIP			LTOE			LMT1			LMT5			LHEE			RKNE			RTHI			RANK			RTIP			RTOE			RMT1			RMT5			RHEE			
		X1	Y1	Z1	X2	Y2	Z2	X3	Y3	Z3	X4	Y4	Z4	X5	Y5	Z5	X6	Y6	Z6	X7	Y7	Z7	X8	Y8	Z8	X9	Y9	Z9	X10	Y10	Z10	X11	Y11	Z11	X12	Y12	Z12	X13	Y13	Z13	X14	Y14	Z14	X15	Y15	Z15	X16	Y16	Z16	X17	Y17	Z17	X18	Y18	Z18	X19	Y19	Z19	X20	Y20	Z20	X21	Y21	Z21	X22	Y22	Z22	X23	Y23	Z23	X24	Y24	Z24	X25	Y25	Z25	X26	Y26	Z26	X27	Y27	Z27	X28	Y28	Z28	X29	Y29	Z29	X30	Y30	Z30	X31	Y31	Z31	X32	Y32	Z32	X33	Y33	Z33	X34	Y34	Z34	X35	Y35	Z35	X36	Y36	Z36	X37	Y37	Z37	X38	Y38	Z38	X39	Y39	Z39	X40	Y40	Z40	X41	Y41	Z41	X42	Y42	Z42	X43	Y43	Z43	X44	Y44	Z44	X45	Y45	Z45	X46	Y46	Z46	X47	Y47	Z47	X48	Y48	Z48	X49	Y49	Z49	X50	Y50	Z50	X51	Y51	Z51	X52	Y52	Z52	X53	Y53	Z53	

410	4.09	-79.73944854736328	1013.73046875	302.1834716796875	36.64039993286133	1026.113037109375	279.7724304199219	-3.794600248336792	1110.189819335938	279.2157897949219	42.60270309448242	1290.24267578125	529.081787109375	-4.49992036819458	1237.401000976562	280.7334289550781	15.50790405273438	1497.766235351562	346.4874877929688	38.0736083984375	1408.50732421875	507.1246337890625	-68.801513671875	1360.625854492188	281.3865661621094	122.5332870483398	1459.236938476562	306.5035705566406	186.5270080566406	1455.824584960938	387.4806823730469	264.9789428710938	1342.278076171875	359.06640625	319.50537109375	1144.267944335938	412.2520141601562	273.1070251464844	1105.536987304688	349.1000366210938	270.6826171875	961.25341796875	584.1647338867188	350.7007446289062	937.5560302734375	566.0880737304688	338.3760070800781	1052.557250976562	470.8236083984375	282.9586791992188	789.6860961914062	671.3634643554688	348.1944274902344	865.0845947265625	620.0238647460938	295.3843078613281	886.878173828125	657.1326904296875	-144.2327575683594	1459.578369140625	428.9058532714844	-213.6917877197266	1396.240234375	416.179443359375	-261.9044799804688	1118.745849609375	378.7270202636719	-176.1162719726562	1113.219604492188	337.4452514648438	-206.262939453125	902.089599609375	505.29541015625	-275.5619506835938	887.7936401367188	457.1113891601562	-273.4464721679688	1049.423217773438	402.8228454589844	-196.5631866455078	707.486328125	515.8444213867188	-212.7488098144531	782.3120727539062	544.348876953125	-269.8370056152344	779.6083374023438	493.8375244140625	-19.62484169006348	1657.07861328125	409.1435852050781	97.04710388183594	1679.668212890625	602.9811401367188	-1.712533831596375	1677.962036132812	614.4042358398438	117.2746963500977	1660.526000976562	440.5012817382812	198.6795196533203	975.9305419921875	347.1963806152344	-168.6581420898438	982.7510986328125	433.7246398925781	-104.7125625610352	1027.759887695312	507.6395568847656	172.7496337890625	1017.124145507812	456.2222290039062	146.5107421875	496.0168151855469	344.4533996582031	178.0365753173828	638.6491088867188	354.3784484863281	65.08766174316406	38.43915557861328	182.3404846191406	115.6264114379883	282.1790771484375	254.4535369873047	90.866455078125	39.57292556762695	402.4706115722656	28.19450759887695	39.88546752929688	353.5184326171875	130.0738372802734	30.74543762207031	291.7068176269531	-3.425812721252441	57.17995071411133	142.8726654052734	-99.18946075439453	521.3129272460938	601.6510009765625	-153.4796600341797	775.3409423828125	525.6778564453125	-50.72992706298828	35.21763229370117	679.1592407226562	-76.16514587402344	411.5665893554688	643.5314331054688	-4.767172813415527	97.88475799560547	875.582763671875	37.91162490844727	79.80850219726562	822.4892578125	-72.49353790283203	57.23251342773438	786.9295654296875	5.351142883300781	24.24163436889648	617.2614135742188	
411	4.1	-78.92744445800781	1012.583984375	309.197509765625	37.4390869140625	1025.07177734375	286.8225708007812	-3.026369571685791	1108.897705078125	285.9907531738281	43.12009048461914	1289.520874023438	535.3236083984375	-3.73347020149231	1236.131591796875	287.1627502441406	15.86779880523682	1496.681274414062	352.2759399414062	38.41727066040039	1407.727783203125	513.1093139648438	-68.04018402099609	1359.186157226562	287.3341979980469	122.9851226806641	1458.210327148438	312.4643859863281	187.0403137207031	1454.876953125	393.4638366699219	265.2545776367188	1341.094360351562	364.9002685546875	319.0185852050781	1142.624389648438	417.508056640625	272.4405517578125	1104.37158203125	354.0507507324219	269.0185241699219	959.0872192382812	588.49755859375	348.921875	935.0736694335938	570.5469970703125	337.3773803710938	1050.584594726562	475.7440490722656	279.9609985351562	787.0134887695312	674.8237915039062	345.8758239746094	862.3131103515625	624.1302490234375	293.0166625976562	884.2108764648438	661.140869140625	-143.9523620605469	1458.302734375	434.5040588378906	-213.2747039794922	1394.859008789062	421.7201232910156	-261.0123596191406	1117.319091796875	384.3396301269531	-175.0746307373047	1111.844360351562	343.3289489746094	-206.3568878173828	899.7926635742188	509.824462890625	-275.5721740722656	886.061767578125	461.36376953125	-272.9058837890625	1048.075927734375	408.0571899414062	-197.4012298583984	705.0608520507812	519.0018920898438	-214.5808258056641	778.6145629882812	546.6781005859375	-270.3410949707031	777.6112670898438	497.3462524414062	-19.58451652526855	1656.140625	414.755126953125	96.81713104248047	1679.030395507812	608.7351684570312	-1.94643223285675	1677.202026367188	620.0521850585938	117.2830047607422	1659.807250976562	446.2890319824219	199.5899505615234	975.0903930664062	354.1293334960938	-167.3433380126953	981.58544921875	440.3054809570312	-103.7406005859375	1026.649169921875	514.5210571289062	174.0599365234375	1016.345397949219	463.3276977539062	147.4775390625	495.3817138671875	349.4518127441406	179.086669921875	637.9544067382812	360.0741271972656	65.30718994140625	39.34747695922852	182.4964599609375	116.1852798461914	282.3861083984375	257.2384643554688	90.87113189697266	39.49980545043945	402.5306396484375	28.32266235351562	39.98997116088867	353.6086730957031	130.0814208984375	30.74018669128418	291.7398376464844	-3.163987159729004	58.59658432006836	143.059814453125	-97.60581207275391	520.5370483398438	608.7607421875	-151.8087768554688	774.3553466796875	533.2318115234375	-50.24052429199219	34.28466415405273	684.3746948242188	-74.55767059326172	410.4025573730469	650.4157104492188	-2.197774410247803	95.42436981201172	880.8523559570312	40.02120590209961	77.64592742919922	827.1663208007812	-70.70790100097656	55.50007247924805	792.5497436523438	5.376290798187256	23.96223258972168	621.751220703125	
412	4.11	-78.2381591796875	1011.512756347656	316.3697509765625	38.13615417480469	1024.091796875	294.0140686035156	-2.368195772171021	1107.643920898438	292.9451599121094	43.57775497436523	1288.885620117188	541.652099609375	-3.066288232803345	1234.883422851562	293.70654296875	16.13753890991211	1495.639892578125	358.1010437011719	38.69707870483398	1407.025390625	519.1424560546875	-67.36248016357422	1357.765014648438	293.3659057617188	123.3331680297852	1457.214111328125	318.4468994140625	187.4703674316406	1453.976318359375	399.4518127441406	265.4391784667969	1339.950561523438	370.7252197265625	318.4323425292969	1141.001098632812	422.685302734375	271.6079711914062	1103.264282226562	358.907470703125	267.3911743164062	956.7586669921875	592.578369140625	347.1715393066406	932.4606323242188	574.6783447265625	336.3319091796875	1048.576416015625	480.4761352539062	277.0906066894531	784.1098022460938	677.8369750976562	343.6300354003906	859.3622436523438	627.8280639648438	290.7507629394531	881.3137817382812	664.8035278320312	-143.7569885253906	1457.073120117188	440.1577453613281	-212.9326324462891	1393.520874023438	427.3346862792969	-260.1975402832031	1115.930908203125	390.0730590820312	-174.1018524169922	1110.498291015625	349.3481140136719	-206.5247039794922	897.5383911132812	514.4711303710938	-275.6529235839844	884.3881225585938	465.75048828125	-272.3301086425781	1046.758178710938	413.4853820800781	-198.3453979492188	702.6929931640625	522.3053588867188	-216.1648406982422	775.31298828125	549.52685546875	-270.9324340820312	775.6824340820312	500.9962768554688	-19.62250137329102	1655.281616210938	420.3977661132812	96.52959442138672	1678.463500976562	614.5059814453125	-2.242128849029541	1676.520141601562	625.7212524414062	117.2089996337891	1659.16455078125	452.0941772460938	200.4093933105469	974.2764892578125	361.1771850585938	-166.0613403320312	980.4579467773438	447.0073547363281	-102.8008193969727	1025.578857421875	521.5225830078125	175.3738098144531	1015.565002441406	470.5648193359375	148.4459686279297	494.7585144042969	354.6968383789062	180.1150360107422	637.2796020507812	365.9767761230469	65.61750030517578	40.42165374755859	182.6795959472656	116.7640838623047	282.6634826660156	260.1875305175781	90.87910461425781	39.41968154907227	402.5943298339844	28.46180152893066	40.11824035644531	353.71044921875	130.0967407226562	30.74213981628418	291.7802734375	-2.839259624481201	60.18241119384766	143.2716064453125	-96.06096649169922	519.7877807617188	615.9470825195312	-150.1806793212891	773.4397583007812	540.9005126953125	-49.76919174194336	33.36635589599609	688.365478515625	-72.95964813232422	409.1549072265625	657.19287109375	0.2661983966827393	91.75022888183594	885.24853515625	42.03794097900391	74.56494140625	830.9089965820312	-68.99092864990234	53.22626495361328	797.0239868164062	5.441390991210938	23.98974609375	625.028076171875	
413	4.12	-77.66268157958984	1010.548767089844	323.6860961914062	38.74872207641602	1023.193176269531	301.3412780761719	-1.808238387107849	1106.449584960938	300.0688171386719	43.97893142700195	1288.359985351562	548.0693969726562	-2.496309757232666	1233.677612304688	300.3623046875	16.32016754150391	1494.66650390625	363.9672241210938	38.91873168945312	1406.420532226562	525.2256469726562	-66.77357482910156	1356.388061523438	299.4800415039062	123.5773010253906	1456.270751953125	324.4517517089844	187.8196105957031	1453.14697265625	405.4450988769531	265.5301818847656	1338.865966796875	376.5436096191406	317.7460021972656	1139.421020507812	427.7964782714844	270.6387023925781	1102.235473632812	363.6976013183594	265.8053894042969	954.2763061523438	596.4108276367188	345.4598999023438	929.7355346679688	578.4761352539062	335.2359619140625	1046.555053710938	485.0246276855469	274.3860168457031	780.9887084960938	680.4004516601562	341.4761047363281	856.2490844726562	631.1072387695312	288.6110534667969	878.199951171875	668.1167602539062	-143.6429748535156	1455.907836914062	445.8682250976562	-212.6622924804688	1392.241943359375	433.0299072265625	-259.4581298828125	1114.600341796875	395.9339904785156	-173.1945648193359	1109.202270507812	355.5062561035156	-206.7549896240234	895.3427734375	519.2325439453125	-275.8031005859375	882.7897338867188	470.2750549316406	-271.7167663574219	1045.48291015625	419.1075744628906	-199.3776245117188	700.4074096679688	525.7600708007812	-217.5048828125	772.3973388671875	552.8651123046875	-271.6002197265625	773.8391723632812	504.7917785644531	-19.7349796295166	1654.527954101562	426.0741271972656	96.19009399414062	1677.990966796875	620.2958374023438	-2.602850675582886	1675.940185546875	631.4074096679688	117.0574111938477	1658.62158203125	457.9188232421875	201.1465606689453	973.4930419921875	368.3523864746094	-164.8206329345703	979.40576171875	453.8303833007812	-101.8997802734375	1024.587890625	528.64306640625	176.6483459472656	1014.761535644531	477.9064025878906	149.3876800537109	494.1522216796875	360.1971435546875	181.1004180908203	636.6270751953125	372.0964660644531	66.01144409179688	41.67241668701172	182.8981018066406	117.3593215942383	283.024658203125	263.3054504394531	90.89306640625	39.33363342285156	402.66357421875	28.61018943786621	40.2725944519043	353.8261108398438	130.1187286376953	30.75482368469238	291.8337097167969	-2.448125600814819	61.96086502075195	143.51416015625	-94.53160858154297	519.1168823242188	623.2062377929688	-148.6208343505859	772.6300659179688	548.670166015625	-49.30813598632812	32.56774139404297	691.2977905273438	-71.36855316162109	407.9005126953125	663.8939208984375	2.550009727478027	86.94198608398438	888.9451293945312	43.90047836303711	70.64083862304688	833.9092407226562	-67.42028045654297	50.5612907409668	800.490234375	5.579541683197021	24.32226371765137	627.31103515625	
